<?xml version="1.0" encoding="UTF-8"?><svg id="_層_2" xmlns="http://www.w3.org/2000/svg" viewBox="0 0 34.84 33.14"><defs><style>.cls-1{fill:#fff;}</style></defs><g id="ani_hearts"><path id="heart2" class="cls-1" d="M31.58,4.94c-2.12-.93-4.36-.14-6.24,.95-2.13,1.24-4.17,2.68-6.15,4.14-2.15,1.59-4.22,3.3-6.21,5.08,1.11-2.17,1.71-4.57,1.45-7.04-.36-3.38-2.48-6.86-5.89-7.85C4.56-.92,1.47,2.42,.49,5.98c-1.09,3.95-.15,7.83,.62,11.73,.42,2.11,.66,4.2,.51,6.35-.16,2.3-.58,4.58-.98,6.85-.25,1.43,1.51,2.73,2.8,2.04,5.06-2.73,10.22-5.29,15.34-7.92,4.52-2.33,9.56-4.46,13.09-8.24,1.73-1.85,3.15-4.28,2.94-6.9-.16-2.02-1.33-4.11-3.24-4.95M4.4,7.57c.24-1.12,.89-3.02,2.15-3.41,1.38-.43,2.9,1.33,3.46,2.37,1.09,2.02,.91,4.17,.14,6.19-.35-2.45-.99-4.91-1.61-7.35-.41-1.61-2.72-1.67-2.97,.08-.38,2.67-.72,5.34-1.05,8.02-.35-1.96-.54-3.93-.12-5.89m23.51,7.73c-3.37,2.77-7.49,4.54-11.35,6.51-2.66,1.36-5.32,2.73-7.99,4.1-.24-.47-.68-.84-1.31-.88-.02,0-.03,0-.04,0-.1-.12-.16-.34-.2-.53,.44,.04,.92-.12,1.33-.57,2.98-3.31,6.21-6.37,9.66-9.18,1.75-1.42,3.55-2.77,5.4-4.06,1.55-1.07,3.23-2.46,5.08-2.97,1.82-.51,3.14,.78,2.99,2.62-.17,2.11-2.07,3.72-3.59,4.97"/></g></svg>