<?xml version="1.0" encoding="UTF-8"?><svg id="_層_2" xmlns="http://www.w3.org/2000/svg" viewBox="0 0 24.54 29.56"><defs><style>.cls-1{fill:#ff9d9d;}</style></defs><g id="hearts_left"><path class="cls-1" d="M8.93,7.47c.96,.89,1.85,1.85,2.68,2.86,.79,.97,1.44,2.03,2.39,2.87-.09-1.49-.35-2.95-.15-4.44,.25-1.87,.99-3.64,1.85-5.32,.68-1.33,1.56-2.72,2.96-3.24,1.92-.71,4.14,.56,5.09,2.37,.95,1.81,.9,3.98,.59,6-.54,3.56-1.8,6.97-2.44,10.51-.64,3.54-.59,7.41,1.3,10.47-4.53-2.92-9.06-5.85-13.59-8.77-3.44-2.22-7.04-4.62-8.81-8.31C.25,11.28-.11,9.96,.03,8.65c.14-1.31,.84-2.6,1.99-3.24,1.12-.63,2.54-.57,3.74-.11,1.2,.46,2.23,1.29,3.17,2.17"/></g></svg>