<?xml version="1.0" encoding="UTF-8"?><svg id="_層_1" xmlns="http://www.w3.org/2000/svg" xmlns:xlink="http://www.w3.org/1999/xlink" viewBox="0 0 14.33 13.44"><defs><style>.cls-1{fill:none;}.cls-2{clip-path:url(#clippath);}.cls-3{fill:url(#_命名漸層);}</style><clipPath id="clippath"><path class="cls-1" d="M1.57,8.06v4.48c0,.49,.41,.9,.9,.9h3.36v-3.81c0-.25,.2-.45,.45-.45h1.79c.25,0,.45,.2,.45,.45v3.81h3.37c.48,0,.88-.41,.88-.9v-4.48L7.17,2.46,1.57,8.06ZM7.17,0c-.19,0-.36,.08-.48,.2L.2,6.69c-.12,.12-.2,.29-.2,.48,0,.37,.3,.67,.67,.67,.19,0,.36-.08,.48-.2L7.17,1.62l6.02,6.02c.12,.12,.29,.2,.48,.2,.37,0,.67-.3,.67-.67,0-.19-.08-.36-.2-.48L7.64,.2C7.52,.08,7.35,0,7.17,0Z"/></clipPath><linearGradient id="_命名漸層" x1="0" y1="13.44" x2="1" y2="13.44" gradientTransform="translate(187.71 13.44) rotate(-90) scale(13.44 -13.44)" gradientUnits="userSpaceOnUse"><stop offset="0" stop-color="#000"/><stop offset="1" stop-color="#575858"/></linearGradient></defs><g class="cls-2"><rect class="cls-3" y="0" width="14.33" height="13.44"/></g></svg>