<?xml version="1.0" encoding="UTF-8"?><svg id="_層_1" xmlns="http://www.w3.org/2000/svg" viewBox="0 0 491.01 486.91"><defs><style>.cls-1{fill:#e9ffb9;}</style></defs><path class="cls-1" d="M186.37,219.14l49.15,227.33c2.05,10.24,12.29,18.43,22.53,20.48,10.24,2.05,22.53-4.1,28.67-14.34l28.67-53.25,79.87,79.87c10.24,10.24,28.67,10.24,38.91,0l49.15-49.15c10.24-10.24,10.24-28.67,0-38.91l-81.92-75.78,51.2-28.67c10.24-6.14,16.38-16.38,14.34-28.67-2.05-12.29-10.24-20.48-20.48-22.53l-227.33-47.1c-18.43-4.1-36.86,14.34-32.77,30.72Z"/><path class="cls-1" d="M212.99,102.4c12.29,0,20.48-10.24,20.48-20.48V20.48c0-12.29-10.24-20.48-20.48-20.48-12.29,0-20.48,10.24-20.48,20.48v61.44c0,10.24,8.19,20.48,20.48,20.48"/><path class="cls-1" d="M137.22,104.45l-45.06-43.01c-8.19-10.24-22.53-10.24-30.72,0-8.19,8.19-8.19,20.48,0,28.67l43.01,43.01c8.19,8.19,22.53,8.19,30.72,0,10.24-6.14,10.24-20.48,2.05-28.67"/><path class="cls-1" d="M0,210.94c0,12.29,10.24,20.48,20.48,20.48h61.44c12.29,0,20.48-10.24,20.48-20.48s-10.24-20.48-20.48-20.48H20.48c-12.29,0-20.48,10.24-20.48,20.48"/><path class="cls-1" d="M106.5,288.77l-43.01,43.01c-8.19,8.19-8.19,22.53,0,30.72,8.19,8.19,22.53,8.19,30.72,0l43.01-43.01c8.19-8.19,8.19-22.53,0-30.72-10.24-8.19-22.53-8.19-30.72,0Z"/><path class="cls-1" d="M321.54,135.17l43.01-45.06c8.19-8.19,8.19-22.53,0-30.72-8.19-8.19-22.53-8.19-30.72,0l-43.01,43.01c-8.19,8.19-8.19,22.53,0,30.72,8.19,10.24,22.53,10.24,30.72,2.05"/></svg>