<?xml version="1.0" encoding="UTF-8"?><svg id="_層_1" xmlns="http://www.w3.org/2000/svg" viewBox="0 0 51.01 32"><defs><style>.cls-1{fill:#005997;}.cls-1,.cls-2,.cls-3{fill-rule:evenodd;}.cls-2{fill:#003151;}.cls-3{fill:#017f7b;}</style></defs><path class="cls-3" d="M35.01,0C43.84,0,51.01,7.16,51.01,16s-7.16,16-16,16c-8.84,0-16-7.16-16-16C19.01,7.16,26.17,0,35.01,0Z"/><path class="cls-1" d="M16,0C24.84,0,32,7.16,32,16c0,8.84-7.16,16-16,16C7.17,32,0,24.83,0,16,0,7.16,7.16,0,16,0Z"/><path class="cls-2" d="M32,16c0-5.27-2.56-9.94-6.5-12.85-3.93,2.91-6.49,7.58-6.49,12.85,0,5.27,2.56,9.94,6.5,12.85,3.93-2.91,6.49-7.57,6.49-12.85Z"/></svg>